<svg width="395.99999999999994" height="140.45320197044333" viewBox="0 0 406 144" class="css-1j8o68f"><defs id="SvgjsDefs3128"></defs><g id="SvgjsG3129" featurekey="symbolFeature-0" transform="matrix(0.833332359790802,0,0,0.833332359790802,0.0000320130309030764,30.790415526868216)" fill="#99ddcc"><g xmlns="http://www.w3.org/2000/svg"><path d="M93.096,36.465l-1.182-0.68l6.624-3.83l0.008-3.458L73.059,13.779c-3.228-1.869-6.149-1.962-8.195-0.611v-0.017   L3.414,48.635l-0.271,0.154l-0.137,0.076v0.009C1.146,50.096,0.007,52.518,0,55.871c-0.016,7.075,4.968,15.721,11.127,19.271   l20.069,11.585c2.03,1.171,3.858,1.3,5.13,0.562v0.007l0.145-0.084l61.584-35.561l0.126-0.069v-0.01   c1.12-0.642,1.812-1.956,1.819-3.829C100.018,43.726,96.916,38.665,93.096,36.465z M61.992,18.263l0.441-0.254   c0.086-0.051,0.162-0.093,0.256-0.145l1.407-0.815c0.028-0.017,0.062-0.025,0.086-0.042c1.877-0.985,4.511-1.835,7.891-0.255   c0.152,0.06,0.299,0.128,0.45,0.213c0.17,0.084,0.34,0.178,0.52,0.279L95.549,30.23l-6.625,3.823l-2.998,1.732l-6.624,3.823   l-2.999,1.732L36.69,64.213l-12.909-7.45l-2.991-1.731l-9.598-5.537c-0.602-0.349-1.204-0.638-1.783-0.868L61.992,18.263z    M31.204,83.262l-20.07-11.584c-4.491-2.591-8.136-8.9-8.118-14.064s3.685-7.253,8.169-4.654l6.6,3.804l-6.614,3.823l-0.019,3.457   l0.008,0.007L31.22,75.636c2.167,1.248,3.925,3.974,3.916,6.08C35.128,83.815,33.369,84.512,31.204,83.262z M96.983,46.274   c-0.093,2.014-1.272,3.22-3.668,4.655c-0.067,0.043-0.137,0.076-0.205,0.119c-0.102,0.06-0.202,0.128-0.313,0.187   c-0.076,0.043-0.146,0.085-0.214,0.119L38.116,82.805c-0.296-3.899-3.259-8.546-6.879-10.627l-17.07-9.86l6.615-3.82l15.9,9.172   l42.61-24.596l2.997-1.741l6.626-3.822l4.17,2.413c2.158,1.249,3.915,3.975,3.907,6.081C96.993,46.096,96.993,46.189,96.983,46.274   z"></path><polygon points="30.946,52.627 37.539,56.566 54.496,47.046 47.671,42.97 44.727,41.21 38.002,37.192 21.045,46.711 28.001,50.867     "></polygon><polygon points="63.142,26.9 65.429,25.617 71.034,22.471 69.109,21.32 67.736,20.499 66.89,20.974 64.878,22.104 62.211,23.601    41.371,35.3 44.67,37.271  "></polygon><polygon points="64.484,29.97 53.814,35.959 47.968,39.242 48.049,39.291 50.995,41.05 51.268,41.213 66.199,32.831 68.364,31.615    73.608,28.67 76.648,26.963 77.633,26.412 74.334,24.441 73.292,25.025 73.025,25.177 66.646,28.757  "></polygon><polygon points="70.615,34.176 68.262,35.497 54.565,43.184 57.865,45.155 70.783,37.903 73.605,36.318 80.321,32.549    83.362,30.841 84.23,30.354 80.932,28.384 80.005,28.903 76.967,30.61  "></polygon><path d="M91.346,44.937c-0.174-0.212-0.449-0.503-0.764-0.688l-1.67-0.965L38.787,72.228l0.653,0.899   c0.344,0.47,0.666,0.956,0.97,1.453l0.508,0.834l49.151-28.383l0.418-0.232c0,0-1.472,0.837-0.004-0.004   C91.953,45.952,91.346,44.937,91.346,44.937z"></path></g></g><g id="SvgjsG3130" featurekey="textGroupContainer" transform="matrix(1,0,0,1,405,0)" fill="#50677a"><rect xmlns="http://www.w3.org/2000/svg" y="0" height="1" width="1" opacity="0"></rect><rect xmlns="http://www.w3.org/2000/svg" y="0" x="-302" width="3" height="144"></rect></g><g id="SvgjsG3131" featurekey="nameFeature-0" transform="matrix(1.232513666152954,0,0,1.232513666152954,118.18986897866407,21.20983654421882)" fill="#50677a"><path d="M2.28 15.52 l18.2 0 l0 5.56 l-12.2 0 l0 3.92 l9.8 0 l0 5.56 l-9.8 0 l0 9.44 l-6 0 l0 -24.48 z M23.080000000000002 12 l6 0 l0 28 l-6 0 l0 -28 z M47.36 20 l6 0 l0 10 c0 6.12 -4.24 10.2 -10.2 10.2 c-6.12 0 -10.2 -4.28 -10.2 -10.2 l0 -10 l6 0 l0 10 c0 2.68 1.36 4.64 4.2 4.64 c2.92 0 4.2 -1.92 4.2 -4.64 l0 -10 z M68.64 20.68 l0 5.56 l-5.6 0 l0 3.76 c0 3.08 2.04 4.64 5 4.64 c0.36 0 0.68 -0.04 0.96 -0.08 s0.52 -0.08 0.8 -0.12 l0 5.56 c-0.36 0.04 -0.64 0.12 -0.84 0.16 c-0.24 0.04 -0.64 0.04 -1.16 0.04 c-6.04 0 -10.76 -4.12 -10.76 -10.2 l0 -14.8 l6 0 l0 5.48 l5.6 0 z M83.11999999999999 20.68 l0 5.56 l-5.6 0 l0 3.76 c0 3.08 2.04 4.64 5 4.64 c0.36 0 0.68 -0.04 0.96 -0.08 s0.52 -0.08 0.8 -0.12 l0 5.56 c-0.36 0.04 -0.64 0.12 -0.84 0.16 c-0.24 0.04 -0.64 0.04 -1.16 0.04 c-6.04 0 -10.76 -4.12 -10.76 -10.2 l0 -14.8 l6 0 l0 5.48 l5.6 0 z M91.96 27.6 c0.6 0.2 1.28 0.36 2 0.44 c0.72 0.12 1.4 0.16 2.04 0.16 c0.8 0 2.84 -0.16 2.84 -1.32 c0 -1.24 -1.76 -1.28 -2.64 -1.28 c-1.76 0 -3.28 0.4 -4.24 2 z M103.27999999999999 33.76 l0 5.6 c-2.24 0.52 -4.48 0.88 -6.8 0.88 c-6.36 0 -11.08 -3.72 -11.08 -10.16 c0 -6.36 4.56 -10.28 10.6 -10.28 c4.12 0 8.88 1.96 8.88 6.64 c0 4.64 -5.04 6.36 -8.92 6.36 c-1.48 0 -2.96 -0.4 -4.32 -0.96 c0.8 2.24 3.2 2.6 5.28 2.6 c1.08 0 2.16 -0.04 3.24 -0.2 c1 -0.08 2.16 -0.2 3.12 -0.48 z M113.83999999999999 30 l0 10 l-6 0 l0 -9.96 c0 -6.64 4.88 -10.24 11.04 -10.24 c0.2 0 0.48 0 0.76 0.04 s0.6 0.12 0.88 0.16 l0 5.8 c-0.2 -0.04 -0.44 -0.08 -0.72 -0.12 s-0.52 -0.08 -0.72 -0.08 c-1 0 -1.8 0.12 -2.48 0.32 c-1.12 0.4 -2.12 1.16 -2.48 2.36 c-0.2 0.52 -0.28 1.12 -0.28 1.72 z M123.39999999999999 40 l0 -24.48 l11.6 0 c4.56 0 8.44 3.44 8.44 8.04 c0 4.64 -4 8.04 -8.44 8.04 l-5.6 0 l0 8.4 l-6 0 z M135 21.08 l-5.6 0 l0 4.96 l5.6 0 c1.4 0 2.44 -1.08 2.44 -2.48 s-1.04 -2.48 -2.44 -2.48 z M152.16 30 l0 10 l-6 0 l0 -9.96 c0 -6.64 4.88 -10.24 11.04 -10.24 c0.2 0 0.48 0 0.76 0.04 s0.6 0.12 0.88 0.16 l0 5.8 c-0.2 -0.04 -0.44 -0.08 -0.72 -0.12 s-0.52 -0.08 -0.72 -0.08 c-1 0 -1.8 0.12 -2.48 0.32 c-1.12 0.4 -2.12 1.16 -2.48 2.36 c-0.2 0.52 -0.28 1.12 -0.28 1.72 z M166.24 27.6 c0.6 0.2 1.28 0.36 2 0.44 c0.72 0.12 1.4 0.16 2.04 0.16 c0.8 0 2.84 -0.16 2.84 -1.32 c0 -1.24 -1.76 -1.28 -2.64 -1.28 c-1.76 0 -3.28 0.4 -4.24 2 z M177.56 33.76 l0 5.6 c-2.24 0.52 -4.48 0.88 -6.8 0.88 c-6.36 0 -11.08 -3.72 -11.08 -10.16 c0 -6.36 4.56 -10.28 10.6 -10.28 c4.12 0 8.88 1.96 8.88 6.64 c0 4.64 -5.04 6.36 -8.92 6.36 c-1.48 0 -2.96 -0.4 -4.32 -0.96 c0.8 2.24 3.2 2.6 5.28 2.6 c1.08 0 2.16 -0.04 3.24 -0.2 c1 -0.08 2.16 -0.2 3.12 -0.48 z M181.20000000000002 39.36 l0 -5.6 c2.64 0.8 5.96 0.96 8.68 0.96 c1.08 0 1.92 -0.04 2.52 -0.16 c0.56 -0.08 0.84 -0.28 0.84 -0.56 c0 -0.12 -0.04 -0.2 -0.12 -0.32 c-0.4 -0.4 -1.28 -0.6 -1.8 -0.72 s-1.2 -0.28 -2.04 -0.44 c-0.68 -0.12 -1.48 -0.28 -2.4 -0.48 c-3.12 -0.68 -5.52 -2.44 -5.52 -5.8 c0 -4.96 4.84 -6.44 8.92 -6.44 c2.56 0 5.12 0.36 7.64 0.88 l0 5.64 c-2.52 -0.76 -5.36 -0.96 -8 -0.96 c-1.04 0 -1.76 0.04 -2.2 0.16 s-0.68 0.32 -0.68 0.56 c0 0.36 0.36 0.6 1.04 0.72 c0.68 0.16 1.64 0.36 2.8 0.56 c1.04 0.2 2.04 0.4 3 0.64 c2.96 0.76 5.08 2.36 5.08 5.56 c0 5.36 -5.4 6.68 -9.72 6.68 c-2.72 0 -5.4 -0.36 -8.04 -0.88 z M200.88000000000002 39.36 l0 -5.6 c2.64 0.8 5.96 0.96 8.68 0.96 c1.08 0 1.92 -0.04 2.52 -0.16 c0.56 -0.08 0.84 -0.28 0.84 -0.56 c0 -0.12 -0.04 -0.2 -0.12 -0.32 c-0.4 -0.4 -1.28 -0.6 -1.8 -0.72 s-1.2 -0.28 -2.04 -0.44 c-0.68 -0.12 -1.48 -0.28 -2.4 -0.48 c-3.12 -0.68 -5.52 -2.44 -5.52 -5.8 c0 -4.96 4.84 -6.44 8.92 -6.44 c2.56 0 5.12 0.36 7.64 0.88 l0 5.64 c-2.52 -0.76 -5.36 -0.96 -8 -0.96 c-1.04 0 -1.76 0.04 -2.2 0.16 s-0.68 0.32 -0.68 0.56 c0 0.36 0.36 0.6 1.04 0.72 c0.68 0.16 1.64 0.36 2.8 0.56 c1.04 0.2 2.04 0.4 3 0.64 c2.96 0.76 5.08 2.36 5.08 5.56 c0 5.36 -5.4 6.68 -9.72 6.68 c-2.72 0 -5.4 -0.36 -8.04 -0.88 z"></path></g><g id="SvgjsG3132" featurekey="sloganFeature-0" transform="matrix(1.4041614532470703,0,0,1.4041614532470703,119.39925600490821,80.24412108316672)" fill="#666666"><path d="M1.14 7.76 l9.1 0 l0 2.78 l-6.1 0 l0 1.96 l4.9 0 l0 2.78 l-4.9 0 l0 4.72 l-3 0 l0 -12.24 z M18.5 17.52 l-4.5 0 l-0.88 2.48 l-3.26 0 l4.9 -12.24 l3 0 l4.9 12.24 l-3.28 0 z M14.98 14.74 l2.54 0 l-1.26 -3.56 z M23.28 19.7 l0 -2.82 c0.24 0.06 0.54 0.12 0.88 0.16 c0.34 0.06 0.7 0.1 1.08 0.12 s0.76 0.04 1.16 0.06 s0.78 0.04 1.12 0.04 c0.94 0 1.6 -0.06 2 -0.16 c0.38 -0.1 0.58 -0.28 0.58 -0.56 c0 -0.24 -0.18 -0.42 -0.36 -0.56 c-0.66 -0.44 -1.44 -0.62 -2.22 -0.8 c-2.2 -0.44 -4.22 -1.32 -4.22 -3.84 c0 -2.98 2.82 -3.68 5.24 -3.68 c1.34 0 2.7 0.14 4 0.46 l0 2.82 c-0.2 -0.06 -0.46 -0.1 -0.78 -0.16 c-0.34 -0.04 -0.68 -0.08 -1.06 -0.12 c-0.78 -0.08 -1.52 -0.12 -2.3 -0.12 c-0.44 0 -1.36 0 -1.78 0.16 c-0.28 0.1 -0.46 0.22 -0.46 0.54 c0 0.16 0.04 0.3 0.12 0.42 c0.08 0.14 0.22 0.24 0.4 0.34 c0.54 0.3 1.24 0.48 1.84 0.62 c0.5 0.12 1 0.26 1.52 0.4 c1.76 0.48 2.92 1.46 2.92 3.34 c0 3.1 -3.08 3.76 -5.56 3.76 c-1.36 0 -2.78 -0.1 -4.12 -0.42 z M33.900000000000006 7.76 l10.2 0 l0 2.78 l-3.6 0 l0 9.46 l-3 0 l0 -9.46 l-3.6 0 l0 -2.78 z M45.660000000000004 7.76 l9.1 0 l0 2.78 l-6.1 0 l0 1.96 l4.9 0 l0 2.78 l-4.9 0 l0 1.94 l6.1 0 l0 2.78 l-9.1 0 l0 -12.24 z M59.46000000000001 10.58 l0 2.92 l2.8 0 c0.92 0 1.46 -0.54 1.46 -1.46 s-0.54 -1.46 -1.46 -1.46 l-2.8 0 z M64 15.48 c0.56 0.76 1.12 1.52 1.7 2.26 c0.56 0.74 1.12 1.5 1.68 2.26 l-3.66 0 c-0.72 -0.96 -1.42 -1.92 -2.12 -2.88 c-0.7 -0.94 -1.42 -1.9 -2.14 -2.86 l0 5.74 l-3 0 l0 -12.24 l5.8 0 c2.28 0 4.22 1.74 4.22 4.04 c0 1.62 -1 3.04 -2.48 3.68 z M80.84 7.76 l3 0 l0 12.24 l-3 0 l-4.8 -7.16 l0 7.16 l-3 0 l0 -12.24 l3 0 l4.8 7.16 l0 -7.16 z M86.14 7.76 l9.1 0 l0 2.78 l-6.1 0 l0 1.96 l4.9 0 l0 2.78 l-4.9 0 l0 1.94 l6.1 0 l0 2.78 l-9.1 0 l0 -12.24 z M109.7 7.76 l2.92 0 l-2.26 12.24 l-4.44 0 l-1.6 -7.14 l-1.7 7.14 l-4.68 0 l-1.98 -12.24 l3.06 0 l1.38 9.16 l1.8 -7.14 l4.26 0 l1.72 7.14 z M113.32000000000001 19.7 l0 -2.82 c0.24 0.06 0.54 0.12 0.88 0.16 c0.34 0.06 0.7 0.1 1.08 0.12 s0.76 0.04 1.16 0.06 s0.78 0.04 1.12 0.04 c0.94 0 1.6 -0.06 2 -0.16 c0.38 -0.1 0.58 -0.28 0.58 -0.56 c0 -0.24 -0.18 -0.42 -0.36 -0.56 c-0.66 -0.44 -1.44 -0.62 -2.22 -0.8 c-2.2 -0.44 -4.22 -1.32 -4.22 -3.84 c0 -2.98 2.82 -3.68 5.24 -3.68 c1.34 0 2.7 0.14 4 0.46 l0 2.82 c-0.2 -0.06 -0.46 -0.1 -0.78 -0.16 c-0.34 -0.04 -0.68 -0.08 -1.06 -0.12 c-0.78 -0.08 -1.52 -0.12 -2.3 -0.12 c-0.44 0 -1.36 0 -1.78 0.16 c-0.28 0.1 -0.46 0.22 -0.46 0.54 c0 0.16 0.04 0.3 0.12 0.42 c0.08 0.14 0.22 0.24 0.4 0.34 c0.54 0.3 1.24 0.48 1.84 0.62 c0.5 0.12 1 0.26 1.52 0.4 c1.76 0.48 2.92 1.46 2.92 3.34 c0 3.1 -3.08 3.76 -5.56 3.76 c-1.36 0 -2.78 -0.1 -4.12 -0.42 z"></path></g></svg>